<?xml version="1.0" encoding="UTF-8"?><svg id="Capa_1" xmlns="http://www.w3.org/2000/svg" viewBox="0 0 185.75 161.12"><defs><style>.cls-1{fill:#fff;}.cls-2{fill:none;stroke:#1d1d1b;stroke-miterlimit:10;}.cls-3{fill:#1d1d1b;}</style></defs><g><path class="cls-3" d="M46.67,160.62h-.02c-9.2-15.96-9.87-36.26,0-53.37,0,0,0,0,0,0,9.88,17.11,27.79,26.67,46.22,26.69v.02c-9.22,15.95-26.46,26.67-46.21,26.67Z"/><path class="cls-1" d="M46.65,107.25c-18.43-.02-36.34-9.59-46.22-26.69,9.23-15.95,26.47-26.67,46.22-26.68-9.19,15.96-9.86,36.26,0,53.36,0,0,0,0,0,0h0Z"/><path class="cls-1" d="M92.88,133.93c-18.43-.02-36.34-9.58-46.22-26.69,9.88-17.1,27.79-26.66,46.21-26.68-9.2,15.96-9.87,36.27,0,53.37Z"/><path class="cls-3" d="M46.66,107.24c-9.87-17.1-9.2-37.4,0-53.36,19.75,0,36.99,10.73,46.21,26.67h0c-18.42,.03-36.33,9.59-46.21,26.69Z"/><path class="cls-1" d="M46.65,53.88s0,0,0,0c4.53-7.85,11.12-14.66,19.54-19.52s17.61-7.16,26.68-7.16h0c9.88,17.11,9.2,37.41,0,53.37h0c-9.23-15.95-26.47-26.68-46.21-26.68Z"/><path class="cls-1" d="M92.89,133.95v-.02c9.06,0,18.25-2.3,26.67-7.16,8.42-4.86,15.01-11.66,19.54-19.52h0c9.2,15.97,9.87,36.27,0,53.37-18.42-.02-36.33-9.58-46.21-26.67Z"/><path class="cls-3" d="M46.66,53.87c-9.2-15.96-9.87-36.26,0-53.37,18.42,.02,36.33,9.58,46.21,26.68h0c-9.07,0-18.26,2.3-26.68,7.16s-15.01,11.67-19.54,19.52Z"/><path class="cls-3" d="M92.88,133.93c-9.87-17.1-9.2-37.41,0-53.37,9.23,15.94,26.47,26.66,46.22,26.67,0,0,0,0,0,0,0,0,0,.02,0,.02-4.53,7.86-11.12,14.66-19.54,19.52-8.42,4.86-17.61,7.17-26.68,7.16Z"/><path class="cls-1" d="M139.09,107.23c-19.75,0-36.99-10.73-46.22-26.67,18.42-.01,36.33-9.58,46.21-26.68,9.87,17.1,9.21,37.38,.02,53.35h0s0,0,0,0Z"/><path class="cls-3" d="M92.87,80.56c9.2-15.96,9.88-36.26,0-53.36,18.42,0,36.34,9.58,46.21,26.68-9.88,17.1-27.79,26.67-46.21,26.68Z"/><path class="cls-1" d="M92.87,27.19h0C102.09,11.24,119.33,.51,139.08,.51h.01c9.2,15.96,9.87,36.26,0,53.36,0,0,0,0,0,.01-9.87-17.1-27.79-26.67-46.21-26.68h0Z"/><path class="cls-3" d="M139.1,107.23c9.19-15.96,9.85-36.25-.02-53.35,0,0,0,0,0-.01h0c18.42,.02,36.33,9.59,46.21,26.68-9.22,15.94-26.46,26.67-46.21,26.68Z"/></g><g><path class="cls-2" d="M92.87,27.19h0C82.99,10.09,65.08,.53,46.66,.5c0,0,0,0,0,0"/><path class="cls-2" d="M92.87,80.56c9.2-15.96,9.88-36.26,0-53.36"/><path class="cls-2" d="M92.87,80.56c-18.42,.02-36.33,9.58-46.21,26.68,0,0,0,0,0,0-9.87,17.11-9.21,37.4,0,53.37"/><path class="cls-2" d="M92.87,80.56c-9.2,15.96-9.87,36.27,0,53.37v.02c9.89,17.1,27.8,26.66,46.22,26.67"/><path class="cls-2" d="M139.1,107.23c9.19-15.96,9.85-36.25-.02-53.35-9.87-17.1-27.79-26.67-46.21-26.68h0c-9.07,0-18.26,2.29-26.68,7.15s-15.01,11.67-19.54,19.52c0,0,0,0,0,0-9.19,15.96-9.86,36.26,0,53.36,9.88,17.11,27.79,26.67,46.22,26.69,9.07,0,18.26-2.3,26.68-7.16,8.42-4.86,15.01-11.66,19.54-19.52,0,0,0-.01,0-.02"/><path class="cls-2" d="M92.87,80.55c-9.23-15.94-26.47-26.67-46.21-26.67-19.75,0-36.99,10.73-46.22,26.68h0"/><path class="cls-2" d="M139.09,53.87c9.88-17.1,9.21-37.4,0-53.37"/><path class="cls-2" d="M92.87,80.56c18.42-.01,36.33-9.58,46.21-26.68,0,0,0,0,0-.01"/><path class="cls-2" d="M92.87,80.55h0c9.23,15.95,26.47,26.67,46.22,26.68,0,0,0,0,0,0h0c19.75,0,36.99-10.74,46.21-26.68"/><path class="cls-2" d="M139.09,160.62c9.88-17.1,9.2-37.4,0-53.37"/><path class="cls-2" d="M46.66,.5c-9.87,17.11-9.2,37.41,0,53.37"/><path class="cls-2" d="M139.08,.51c-19.75,0-37,10.73-46.22,26.68"/><path class="cls-2" d="M46.67,160.62c19.75,0,36.99-10.72,46.22-26.67,0,0,0,0,0,0"/><path class="cls-2" d="M185.32,80.56h0c-9.88-17.11-27.79-26.67-46.21-26.69"/><path class="cls-2" d="M.43,80.56c9.87,17.1,27.79,26.67,46.22,26.69"/></g></svg>